<svg xmlns="http://www.w3.org/2000/svg" xmlns:xlink="http://www.w3.org/1999/xlink" viewBox="0 0 958 327" style="fill: rgb(0, 0, 0);" original_string_length="6291"><g><path d="M1,285.6V151.73h20.36v57.39h71.94v-57.39h20.36v133.89H93.29v-58.34H21.36v58.34H1V285.6z" style="fill: rgb(255, 255, 255);"/><path d="M148.73,172.37c-3.23,0-6-1.14-8.33-3.43c-2.32-2.3-3.49-5.1-3.49-8.41c0-3.19,1.17-5.93,3.49-8.23 c2.33-2.3,5.1-3.43,8.33-3.43c3.36,0,6.21,1.15,8.54,3.43c2.32,2.3,3.49,5.1,3.49,8.41c0,3.18-1.17,5.93-3.49,8.23 C154.94,171.23,152.1,172.37,148.73,172.37z M139.04,285.6v-97.35h19.38v97.35H139.04z" style="fill: rgb(255, 255, 255);"/><path d="M213.09,285.6l-42.66-97.35h21.33l30.83,72.87l30.83-72.87h20.75l-42.66,97.35H213.09z" style="fill: rgb(255, 255, 255);"/><path d="M333.31,287.33c-9.69,0-18.46-2.21-26.27-6.6c-7.83-4.41-14.06-10.46-18.71-18.16 c-4.65-7.71-6.98-16.29-6.98-25.73c0-9.43,2.23-17.91,6.69-25.43c4.46-7.53,10.43-13.55,17.94-18.07c7.5-4.52,15.9-6.79,25.21-6.79 c9.05,0,17.16,2.27,24.33,6.79c7.17,4.52,12.87,10.65,17.06,18.36c4.2,7.72,6.3,16.42,6.3,26.11v5.16h-77.94 c0.9,5.48,2.87,10.3,5.91,14.44c3.03,4.14,6.91,7.46,11.63,9.95c4.72,2.49,9.91,3.73,15.6,3.73c4.91,0,9.56-0.76,13.95-2.3 c4.4-1.53,8.09-3.56,11.06-6.11l12.22,11.86c-5.69,4.34-11.61,7.55-17.74,9.66C347.42,286.28,340.67,287.33,333.31,287.33z M301.12,228.61h58.56c-0.9-4.97-2.75-9.4-5.53-13.29c-2.78-3.89-6.18-6.95-10.18-9.18c-4.01-2.23-8.47-3.34-13.39-3.34 c-4.91,0-9.43,1.11-13.56,3.34c-4.13,2.23-7.59,5.25-10.39,9.09C303.86,219.05,302.03,223.5,301.12,228.61z" style="fill: rgb(255, 255, 255);"/><path d="M440.33,285.6v-53.16l-54.67-80.71h23.65L451,214.84l41.88-63.12h22.49l-54.67,81.3v52.59h-20.36V285.6z" style="fill: rgb(255, 193, 0);"/><path d="M573.33,287.51c-9.57,0-18.26-2.2-26.07-6.59c-7.83-4.41-14.02-10.46-18.62-18.17 c-4.59-7.7-6.89-16.29-6.89-25.73c0-9.56,2.26-18.14,6.79-25.73c4.51-7.59,10.72-13.64,18.62-18.17 c7.88-4.52,16.61-6.79,26.18-6.79c9.57,0,18.26,2.27,26.07,6.79c7.81,4.52,13.99,10.59,18.51,18.17 c4.52,7.58,6.79,16.16,6.79,25.73c0,9.43-2.25,18.02-6.79,25.73c-4.53,7.72-10.69,13.78-18.51,18.17 C591.59,285.32,582.9,287.51,573.33,287.51z M573.33,270.69c6.07,0,11.56-1.5,16.47-4.5c4.92-3,8.79-7.04,11.63-12.14 c2.84-5.1,4.27-10.84,4.27-17.21c0-6.24-1.43-11.89-4.27-16.93c-2.84-5.03-6.72-9.09-11.63-12.14c-4.91-3.07-10.4-4.59-16.47-4.59 c-5.95,0-11.41,1.52-16.38,4.59c-4.98,3.06-8.9,7.11-11.74,12.14c-2.84,5.04-4.27,10.68-4.27,16.93c0,6.38,1.43,12.11,4.27,17.21 c2.84,5.1,6.75,9.15,11.74,12.14C561.91,269.19,567.37,270.69,573.33,270.69z" style="fill: rgb(255, 193, 0);"/><path d="M681.31,287.51c-7.63,0-14.35-1.59-20.16-4.77c-5.82-3.18-10.38-7.68-13.68-13.48 c-3.3-5.8-4.94-12.39-4.94-19.8v-61.21h19.39v57.95c0,7.53,2.23,13.52,6.69,17.98c4.46,4.47,10.43,6.7,17.94,6.7 c5.17,0,9.86-1.12,14.06-3.34c4.2-2.23,7.59-5.39,10.17-9.48v-69.82h19.39v97.35h-19.39v-9.95 C703.17,283.57,693.34,287.51,681.31,287.51z" style="fill: rgb(255, 193, 0);"/><path d="M753.05,285.6v-97.35h19.39v9.95c7.62-7.91,17.51-11.87,29.66-11.87c7.63,0,14.32,1.59,20.07,4.78 c5.75,3.18,10.28,7.66,13.57,13.39c3.3,5.73,4.94,12.37,4.94,19.89v61.2h-19.39v-57.95c0-7.66-2.2-13.68-6.59-18.07 c-4.39-4.39-10.41-6.6-18.03-6.6c-5.18,0-9.8,1.11-13.86,3.35c-4.07,2.23-7.53,5.39-10.38,9.46v69.81H753.05z" style="fill: rgb(255, 193, 0);"/><path d="M911.64,326.53c-7.11,0-14.09-0.84-20.94-2.48c-6.86-1.66-13.06-4.02-18.62-7.07l7.56-14.91 c5.69,2.8,11.08,4.88,16.19,6.21c5.1,1.34,10.18,2.01,15.21,2.01c8.78,0,15.42-1.91,19.87-5.74c4.47-3.82,6.69-9.56,6.69-17.21 v-11.1c-8.53,6.76-18.42,10.14-29.66,10.14c-9.19,0-17.52-2.22-25.02-6.69c-7.49-4.46-13.47-10.48-17.94-18.07 c-4.47-7.58-6.69-15.97-6.69-25.15c0-9.3,2.26-17.75,6.79-25.35c4.52-7.58,10.57-13.57,18.13-17.98c7.56-4.4,16-6.59,25.3-6.59 c5.43,0,10.64,0.84,15.62,2.48c4.97,1.66,9.6,4.14,13.86,7.46v-8.23h19v98.89c0,12.75-3.88,22.5-11.63,29.27 C937.63,323.15,926.38,326.53,911.64,326.53z M910.48,269.92c5.56,0,10.69-1.02,15.41-3.07c4.72-2.04,8.63-4.84,11.74-8.41v-44 c-2.98-3.44-6.86-6.18-11.63-8.22c-4.78-2.05-9.95-3.07-15.5-3.07c-6.21,0-11.8,1.43-16.78,4.3c-4.98,2.87-8.91,6.82-11.82,11.87 c-2.91,5.04-4.36,10.74-4.36,17.11c0,6.25,1.45,11.89,4.36,16.93c2.91,5.04,6.88,9.07,11.92,12.05 C898.84,268.42,904.4,269.92,910.48,269.92z" style="fill: rgb(255, 193, 0);"/><g style="fill: rgb(255, 193, 0);"><path d="M667.91,105.55c-0.74,4.16-1.63,7.88-2.02,11.66c-0.77,7.44-3.16,14.28-7.03,20.45 c-3.03,4.83-6.99,6.67-10.01,4.03c-0.87-0.76-1.51-1.47-1.97-2.52c-6.96-15.76-13.98-31.5-20.94-47.27 c-0.85-1.91-1.42-3.95-2.11-5.93c-0.27-0.76-0.07-1.93-1.29-1.91c-1.3,0.02-1.54,1.17-1.58,2.13c-0.2,5-1.24,9.91-1.54,14.86 c-0.77,12.84-2.44,25.61-2.38,38.51c0.02,4.06-1.1,8.15-1.92,12.18c-0.56,2.77-2.35,4.5-5.09,5.16c-2.78,0.66-4.48-0.74-6.1-2.87 c-5.72-7.52-11.54-14.97-17.39-22.37c-0.6-0.76-0.97-2.42-2.3-1.93c-1.39,0.51-1.06,2.1-1.01,3.3 c0.38,13.25-0.25,26.48-0.91,39.71c-0.14,2.85-0.85,5.2-4.11,5.57c-2.84,0.32-4.21-0.48-4.61-3.92 c-2.42-20.66-1.26-41.43-2.13-62.14c-0.13-3.15,0.96-6,3.82-7.52c3.01-1.61,5.56-0.29,7.86,1.88c6.6,6.2,12.58,12.95,18.06,20.22 c0.62,0.82,1.09,2.21,2.42,1.91c1.51-0.35,1.41-1.8,1.48-3.05c0.97-17.56,3.83-34.9,5.7-52.36c0.59-5.48,2.06-10.96,4.03-16.21 c1.1-2.95,2.34-5.56,5.83-5.74c3.54-0.17,5.18,2.73,6.39,5.25c8.73,18.32,16.57,37.05,24.05,55.95c0.53,1.31,0.89,2.86,2.13,3.81 c1.45-0.68,1.91-2.07,1.95-3.4c0.12-4.78,1.35-9.38,2.09-14.04c1.14-7.22,2.87-14.32,6.46-20.77c1.07-1.9,2.56-3.33,4.34-4.37 c3.06-1.8,6.84-0.39,7.89,3.11c2.2,7.34,4.07,14.78,6.25,22.13c2.98,10.06,5.49,20.28,8.03,30.45c1.97,7.89,4.48,15.68,5.83,23.79 c0.61,3.68,1.52,7.28,1.38,11.04c-0.13,3.46-2.64,6.61-5.7,7.23c-3.56,0.72-5.02-1.42-6.45-4.43c-3.05-6.42-4.15-13.44-6.17-20.15 c-2.46-8.17-3.92-16.61-6.39-24.8c-1.02-3.42-1.57-7.01-2.13-10.55C670.22,109.5,669.66,107.57,667.91,105.55z" style="fill: inherit;"/><path d="M614.36,0.62c4.81,0.13,7.96,3.46,7.83,8.3c-0.13,5.51-4.78,9.9-10.25,9.69c-4.55-0.17-7.84-3.44-7.75-7.67 C604.34,5.35,609.13,0.47,614.36,0.62z" style="fill: inherit;"/><path d="M568.16,70.02c4.12-0.06,7.03,2.6,7.06,6.44c0.02,3.28-4.16,7.54-7.42,7.56c-3.48,0.01-7.38-3.29-7.57-6.42 C560.02,74.23,564.38,70.07,568.16,70.02z" style="fill: inherit;"/><path d="M673.01,46.1c-0.08,4.16-3.83,8.02-7.78,8.02c-3.49,0-7.33-3.62-7.21-6.81c0.15-3.95,4.22-8.18,7.84-8.19 C670.04,39.11,673.09,42.08,673.01,46.1z" style="fill: inherit;"/></g></g></svg>